<?xml version="1.0" encoding="utf-8"?>
<!-- Generator: Adobe Illustrator 25.3.0, SVG Export Plug-In . SVG Version: 6.00 Build 0)  -->
<svg version="1.1" id="Calque_1" xmlns="http://www.w3.org/2000/svg" xmlns:xlink="http://www.w3.org/1999/xlink" x="0px" y="0px"
	 viewBox="0 0 1000 1000" style="enable-background:new 0 0 1000 1000;" xml:space="preserve">
<style type="text/css">
	.st0{display:none;}
	.st1{display:inline;}
	.st2{fill:#1D1D1B;}
	.st3{fill:url(#SVGID_1_);}
	.st4{fill:url(#SVGID_2_);}
	.st5{fill:url(#SVGID_3_);}
	.st6{fill:url(#SVGID_4_);}
	.st7{fill:url(#SVGID_5_);}
	.st8{fill:url(#SVGID_6_);}
	.st9{fill:url(#SVGID_7_);}
	.st10{fill:url(#SVGID_8_);}
	.st11{fill:#FFFFFF;}
	.st12{fill:url(#SVGID_9_);}
	.st13{fill:url(#SVGID_10_);}
	.st14{fill:#3F56FE;}
	.st15{fill:url(#SVGID_11_);}
	.st16{fill:url(#SVGID_12_);}
	.st17{fill:url(#SVGID_13_);}
	.st18{fill:url(#SVGID_14_);}
	.st19{fill:url(#SVGID_15_);}
	.st20{fill:url(#SVGID_16_);}
	.st21{fill:url(#SVGID_17_);}
	.st22{fill:url(#SVGID_18_);}
	.st23{fill:url(#SVGID_19_);}
	.st24{fill:url(#SVGID_20_);}
</style>
<g id="Calque_3" class="st0">
	<g class="st1">
		<g>
			<g>
				<path class="st2" d="M532.4,407.7c3.5-5.9,36.2-65.9,39.7-73c8.2-16.8,18.5-38.5,18.2-60.7c-0.3-23.8-8.7-44.7-24.9-62.8
					c-5.5-6.2-11.5-12.1-16.4-18.8c-4.7-6.5-9.2-13.4-12.2-20.8c-5.1-12.5,0.3-23.8,12.8-29c2.4-1,4.9-1.8,7.4-2.8
					c5-1.9,8.3-5.3,7.7-10.9c-0.6-5.8-5.1-8.3-10.2-9.2c-17.2-2.8-31.9,1.8-43.8,13.9c-12.8,12.9-14.3,28.9-11.9,45.9
					c1.9,13.1,8.2,23.9,17.5,33.4c6.2,6.4,12.2,13,18.6,19.2c23.1,22.6,15.8,61.1,6.1,82.3c-15.7,34.4-53.8,98-57.3,102.8
					L532.4,407.7z"/>
			</g>
			<g>
				<path class="st2" d="M514.9,430.3c6.1-2.8,64.9-32.8,71.6-36.5c15.7-8.9,35.8-20.6,47.6-38.2c12.7-18.9,17.2-39.9,14.1-62.8
					c-1.1-7.9-2.7-15.7-3-23.6c-0.3-7.6-0.1-15.5,1.4-22.9c2.7-12.6,13.2-18.6,26-16.1c2.5,0.5,5,1.2,7.4,1.7
					c5.1,1.1,9.5,0.3,12.1-4.5c2.6-4.9,0.4-9.3-3.2-12.7c-12.3-11.4-26.7-15.5-42.8-12.4c-17.3,3.4-27.2,15.2-34.5,29.9
					c-5.6,11.3-6.3,23.2-4.1,35.6c1.5,8.3,2.8,16.7,4.5,25.1c6.3,30.1-20.4,56.6-39.7,68.2c-31.4,18.8-96.5,48.7-101.9,50.7
					L514.9,430.3z"/>
			</g>
			<g>
				<path class="st2" d="M488.6,438.8c6.4,1,70,8.7,77.4,9.3c17.5,1.4,40,2.8,59.1-4.8c20.5-8.2,35.5-22.3,45.4-42.1
					c3.4-6.8,6.4-13.8,10.4-20.2c3.9-6.2,8.3-12.3,13.6-17.3c9-8.6,20.7-7.7,29.7,1.1c1.7,1.7,3.4,3.6,5.1,5.3
					c3.5,3.6,7.5,5.3,12.2,2.9c4.8-2.5,5.4-7.1,4.3-11.7c-3.7-15.5-13-26.5-27.7-32.6c-15.7-6.5-30.1-2.5-44,5.3
					c-10.6,6-17.7,15-22.6,26c-3.3,7.4-6.9,14.7-10,22.2c-11.3,27.2-47.2,33.8-69,32.7c-35.5-1.8-104.2-12.9-109.6-14.3L488.6,438.8
					z"/>
			</g>
			<g>
				<path class="st2" d="M462.8,431.5c4.6,4.2,51.7,44.2,57.3,48.6c13.3,10.4,30.6,23.5,50.2,27.7c21,4.5,40.7,1.3,59.4-9.1
					c6.4-3.6,12.6-7.5,19.3-10.4c6.5-2.8,13.4-5.3,20.3-6.5c11.9-2,20.9,5,23.3,16.7c0.5,2.3,0.8,4.6,1.2,6.9
					c0.9,4.7,3.2,8.2,8.2,8.8c5.2,0.6,8.2-2.7,9.8-7c5.5-14.2,3.9-27.8-4.6-40.5c-9.1-13.5-22.9-18-38.3-19.3
					c-11.8-1-22.4,2.4-32.3,8.5c-6.7,4.1-13.5,7.9-20.1,12.2c-23.8,15.4-56.4,1.6-73.3-10.9c-27.5-20.3-76.8-65.7-80.5-69.6V431.5z"
					/>
			</g>
		</g>
		<g>
			<g>
				<path class="st2" d="M393.2,407.7c-3.5-5.9-36.2-65.9-39.7-73c-8.2-16.8-18.5-38.5-18.2-60.7c0.3-23.8,8.7-44.7,24.9-62.8
					c5.5-6.2,11.5-12.1,16.4-18.8c4.7-6.5,9.2-13.4,12.2-20.8c5.1-12.5-0.3-23.8-12.8-29c-2.4-1-4.9-1.8-7.4-2.8
					c-5-1.9-8.3-5.3-7.7-10.9c0.6-5.8,5.1-8.3,10.2-9.2c17.2-2.8,31.9,1.8,43.8,13.9c12.8,12.9,14.3,28.9,11.9,45.9
					c-1.9,13.1-8.2,23.9-17.5,33.4c-6.2,6.4-12.2,13-18.6,19.2c-23.1,22.6-15.8,61.1-6.1,82.3c15.7,34.4,53.8,98,57.3,102.8
					L393.2,407.7z"/>
			</g>
			<g>
				<path class="st2" d="M410.7,430.3c-6.1-2.8-64.9-32.8-71.6-36.5c-15.7-8.9-35.8-20.6-47.6-38.2c-12.7-18.9-17.2-39.9-14.1-62.8
					c1.1-7.9,2.7-15.7,3-23.6c0.3-7.6,0.1-15.5-1.4-22.9c-2.7-12.6-13.2-18.6-26-16.1c-2.5,0.5-5,1.2-7.4,1.7
					c-5.1,1.1-9.5,0.3-12.1-4.5c-2.6-4.9-0.4-9.3,3.2-12.7c12.3-11.4,26.7-15.5,42.8-12.4c17.3,3.4,27.2,15.2,34.5,29.9
					c5.6,11.3,6.3,23.2,4.1,35.6c-1.5,8.3-2.8,16.7-4.5,25.1c-6.3,30.1,20.4,56.6,39.7,68.2c31.4,18.8,96.5,48.7,101.9,50.7
					L410.7,430.3z"/>
			</g>
			<g>
				<path class="st2" d="M437,438.8c-6.4,1-70,8.7-77.4,9.3c-17.5,1.4-40,2.8-59.1-4.8c-20.5-8.2-35.5-22.3-45.4-42.1
					c-3.4-6.8-6.4-13.8-10.4-20.2c-3.9-6.2-8.3-12.3-13.6-17.3c-9-8.6-20.7-7.7-29.7,1.1c-1.7,1.7-3.4,3.6-5.1,5.3
					c-3.5,3.6-7.5,5.3-12.2,2.9c-4.8-2.5-5.4-7.1-4.3-11.7c3.7-15.5,13-26.5,27.7-32.6c15.7-6.5,30.1-2.5,44,5.3
					c10.6,6,17.7,15,22.6,26c3.3,7.4,6.9,14.7,10,22.2c11.3,27.2,47.2,33.8,69,32.7c35.5-1.8,104.2-12.9,109.6-14.3L437,438.8z"/>
			</g>
			<g>
				<path class="st2" d="M462.8,431.5c-4.6,4.2-51.7,44.2-57.3,48.6c-13.3,10.4-30.6,23.5-50.2,27.7c-21,4.5-40.7,1.3-59.4-9.1
					c-6.4-3.6-12.6-7.5-19.3-10.4c-6.5-2.8-13.4-5.3-20.3-6.5c-11.9-2-20.9,5-23.3,16.7c-0.5,2.3-0.8,4.6-1.2,6.9
					c-0.9,4.7-3.2,8.2-8.2,8.8c-5.2,0.6-8.2-2.7-9.8-7c-5.5-14.2-3.9-27.8,4.6-40.5c9.1-13.5,22.9-18,38.3-19.3
					c11.8-1,22.4,2.4,32.3,8.5c6.7,4.1,13.5,7.9,20.1,12.2c23.8,15.4,56.4,1.6,73.3-10.9c27.5-20.3,76.8-65.7,80.5-69.6V431.5z"/>
			</g>
		</g>
	</g>
	<g class="st1">
		<g>
			<path d="M462.8,464.6c5.4,0.1,10.6,3.7,10.1,9.2c-0.7,7.3-2,14.5-3.4,21.7c-4.5,23.2-2.8,45.6,9.6,66.2
				c13.5,22.4,32.7,35.3,59.9,33c28.1-2.4,48-28.9,42-55.8c-4.5-20-24.6-32.1-43.9-26.3c-13.5,4-21.8,16.7-20.2,30.7
				c0.4,4,2.2,6.9,6.4,6.9c4.2,0.1,6.7-2.7,7.5-6.7c0.5-2.4,0.3-5.1,1.1-7.3c2.2-6,7.1-8.6,13.3-8.8c7.3-0.2,12.5,3.5,15.6,9.7
				c7.8,15.3-5.5,34-23.2,33c-12.3-0.7-21.4-6.8-28.1-16.7c-8.5-12.3-10-26.3-9.1-40.7c0.2-3.8,0.7-7.6,1.2-11.4
				c1.6-10.3,3.3-20.7,5.2-32.2l18.3-92.7c2-8.4,4.2-16.8,7.2-24.8c4.1-10.7,9.6-20.9,13.8-31.6c18.8-46.8-0.6-98.1-45.1-119.6
				c-12.3-5.9-25.3-8.6-38.1-8.3V464.6z M491.8,327.2c0-9,7-16.2,16-16.3c8.8-0.2,16.1,7,16.2,16.1c0.1,8.7-6.9,15.8-15.8,15.9
				C499,343.1,491.9,336.3,491.8,327.2z"/>
		</g>
		<g>
			<path d="M462.8,464.6c-5.4,0.1-10.6,3.7-10.1,9.2c0.7,7.3,2,14.5,3.4,21.7c4.5,23.2,2.8,45.6-9.6,66.2
				c-13.5,22.4-32.7,35.3-59.9,33c-28.1-2.4-48-28.9-42-55.8c4.5-20,24.6-32.1,43.9-26.3c13.5,4,21.8,16.7,20.2,30.7
				c-0.4,4-2.2,6.9-6.4,6.9c-4.2,0.1-6.7-2.7-7.5-6.7c-0.5-2.4-0.3-5.1-1.1-7.3c-2.2-6-7.1-8.6-13.3-8.8c-7.3-0.2-12.5,3.5-15.6,9.7
				c-7.8,15.3,5.5,34,23.2,33c12.3-0.7,21.4-6.8,28.1-16.7c8.5-12.3,10-26.3,9.1-40.7c-0.2-3.8-0.7-7.6-1.2-11.4
				c-1.6-10.3-3.3-20.7-5.2-32.2l-18.3-92.7c-2-8.4-4.2-16.8-7.2-24.8c-4.1-10.7-9.6-20.9-13.8-31.6c-18.8-46.8,0.6-98.1,45.1-119.6
				c12.3-5.9,25.3-8.6,38.1-8.3V464.6z M433.8,327.2c0-9-7-16.2-16-16.3c-8.8-0.2-16.1,7-16.2,16.1c-0.1,8.7,6.9,15.8,15.8,15.9
				C426.6,343.1,433.7,336.3,433.8,327.2z"/>
		</g>
	</g>
</g>
<g id="Calque_3_-_copie" class="st0">
	<g class="st1">
		<g>
			<g>
				
					<linearGradient id="SVGID_1_" gradientUnits="userSpaceOnUse" x1="80.8605" y1="653.2648" x2="506.9765" y2="653.2648" gradientTransform="matrix(0.151 1.0486 0.9687 -0.2694 -67.1181 171.2655)">
					<stop  offset="2.141524e-02" style="stop-color:#15A8FF"/>
					<stop  offset="0.1321" style="stop-color:#1A9FFF"/>
					<stop  offset="0.3128" style="stop-color:#2687FE"/>
					<stop  offset="0.5409" style="stop-color:#3B5FFE"/>
					<stop  offset="0.8049" style="stop-color:#5728FD"/>
					<stop  offset="0.9814" style="stop-color:#6C00FC"/>
				</linearGradient>
				<path class="st3" d="M605.3,537.2c6.9-10.4,71.2-115,78.1-127.3c16.5-29.1,37.1-66.8,40-103.6c3.2-39.5-7.9-72.9-32.4-100.5
					c-8.4-9.5-17.6-18.4-24.8-28.7c-7-10-13.5-20.9-17.5-32.6c-6.8-20,4.1-39.6,26-50.1c4.2-2,8.6-3.8,12.9-5.8
					c8.7-4,14.8-10,14.6-19.2c-0.2-9.5-7.3-13-15.8-13.6c-28.6-2.1-54.1,7.9-76.1,29.7c-23.5,23.3-28.6,50.1-27.1,78.1
					c1.2,21.4,10.3,38.4,24.4,52.7c9.5,9.7,18.6,19.7,28.4,29.1c35.6,34,17.4,99-2.2,135.7c-31.8,59.6-105.8,171-112.4,179.5
					L605.3,537.2z"/>
			</g>
			<g>
				
					<linearGradient id="SVGID_2_" gradientUnits="userSpaceOnUse" x1="68.9631" y1="664.0744" x2="495.0791" y2="664.0744" gradientTransform="matrix(-0.4393 0.9833 0.9084 0.3282 237.1718 -107.5221)">
					<stop  offset="2.141524e-02" style="stop-color:#15A8FF"/>
					<stop  offset="0.1321" style="stop-color:#1A9FFF"/>
					<stop  offset="0.3128" style="stop-color:#2687FE"/>
					<stop  offset="0.5409" style="stop-color:#3B5FFE"/>
					<stop  offset="0.8049" style="stop-color:#5728FD"/>
					<stop  offset="0.9814" style="stop-color:#6C00FC"/>
				</linearGradient>
				<path class="st4" d="M588.2,584.7c11-4.9,117.4-57.2,129.5-63.7c28.5-15.4,64.8-35.7,86.7-65.4c23.5-31.9,32.6-66.8,27.9-104.6
					c-1.6-13-4.1-25.9-4.3-38.9c-0.2-12.6,0.4-25.7,3.5-38c5.3-21,24.4-31.5,47.2-27.9c4.4,0.7,8.8,1.7,13.2,2.5c9,1.6,17,0,21.8-8
					c4.9-8.2,1.2-15.3-5.2-20.8c-21.4-18.3-47-24.4-75.9-18.5c-31,6.4-49.3,26.3-62.9,51.1c-10.5,19-12.3,38.7-8.8,59.1
					c2.4,13.7,4.2,27.6,7,41.2c10,49.5-39,94.7-74,114.7c-56.8,32.6-174.6,85.2-184.3,88.6L588.2,584.7z"/>
			</g>
			<g>
				
					<linearGradient id="SVGID_3_" gradientUnits="userSpaceOnUse" x1="52.7433" y1="665.7814" x2="478.8593" y2="665.7814" gradientTransform="matrix(-0.8705 0.5872 0.5424 0.8042 625.8992 -170.3763)">
					<stop  offset="2.141524e-02" style="stop-color:#15A8FF"/>
					<stop  offset="0.1321" style="stop-color:#1A9FFF"/>
					<stop  offset="0.3128" style="stop-color:#2687FE"/>
					<stop  offset="0.5409" style="stop-color:#3B5FFE"/>
					<stop  offset="0.8049" style="stop-color:#5728FD"/>
					<stop  offset="0.9814" style="stop-color:#6C00FC"/>
				</linearGradient>
				<path class="st5" d="M549.5,615.5c11.3,2.1,123.2,18.8,136.2,20.2c30.7,3.3,70.2,6.8,103.3-5.9c35.6-13.7,61.3-38.3,77.7-73.3
					c5.6-12,10.5-24.5,17.3-35.7c6.6-10.9,14-21.7,23-30.4c15.4-14.9,36-12.8,52.1,3.4c3.1,3.2,6.1,6.5,9.1,9.7
					c6.3,6.6,13.4,9.8,21.4,5.7c8.2-4.2,9.1-12.4,6.9-20.8c-7.2-28-24.1-48-50.1-59.5c-27.9-12.4-52.9-5.9-76.9,7.4
					c-18.4,10.2-30.4,26-38.4,45.5c-5.4,13.1-11.4,26-16.5,39.2c-18.5,48.1-81.2,58.4-119.5,55.4c-62.2-4.9-183.2-27.9-192.7-30.5
					L549.5,615.5z"/>
			</g>
			<g>
				
					<linearGradient id="SVGID_4_" gradientUnits="userSpaceOnUse" x1="37.6982" y1="657.6307" x2="463.8141" y2="657.6307" gradientTransform="matrix(-1 0 0 1 966.2967 0)">
					<stop  offset="2.141524e-02" style="stop-color:#15A8FF"/>
					<stop  offset="0.1321" style="stop-color:#1A9FFF"/>
					<stop  offset="0.3128" style="stop-color:#2687FE"/>
					<stop  offset="0.5409" style="stop-color:#3B5FFE"/>
					<stop  offset="0.8049" style="stop-color:#5728FD"/>
					<stop  offset="0.9814" style="stop-color:#6C00FC"/>
				</linearGradient>
				<path class="st6" d="M502.5,619.4c7.8,8.3,87.3,87.1,96.8,95.7c22.5,20.5,51.8,46.3,84.7,54.5c35.4,8.8,68.8,2.6,100.4-17.8
					c10.8-7,21.4-14.9,32.7-20.6c11-5.5,22.6-10.4,34.4-12.7c20.1-3.9,35.2,9.8,39.3,32.9c0.8,4.5,1.3,9.1,2,13.6
					c1.4,9.2,5.4,16.1,13.9,17.3c8.7,1.2,13.8-5.4,16.6-13.8c9.2-28,6.5-54.9-7.8-79.7c-15.4-26.7-38.7-35.5-64.7-38
					c-19.9-1.9-37.8,4.7-54.6,16.7c-11.3,8.1-22.8,15.7-33.9,24C722,722,667,694.6,638.4,670c-46.5-40.1-129.8-129.4-135.9-137.2
					V619.4z"/>
			</g>
		</g>
		<g>
			<g>
				
					<linearGradient id="SVGID_5_" gradientUnits="userSpaceOnUse" x1="71" y1="614.8854" x2="497.116" y2="614.8854" gradientTransform="matrix(-0.151 1.0486 -0.9687 -0.2694 1033.4148 171.2655)">
					<stop  offset="2.141524e-02" style="stop-color:#15A8FF"/>
					<stop  offset="0.1321" style="stop-color:#1A9FFF"/>
					<stop  offset="0.3128" style="stop-color:#2687FE"/>
					<stop  offset="0.5409" style="stop-color:#3B5FFE"/>
					<stop  offset="0.8049" style="stop-color:#5728FD"/>
					<stop  offset="0.9814" style="stop-color:#6C00FC"/>
				</linearGradient>
				<path class="st7" d="M399.7,537.2c-6.9-10.4-71.2-115-78.1-127.3c-16.5-29.1-37.1-66.8-40-103.6c-3.2-39.5,7.9-72.9,32.4-100.5
					c8.4-9.5,17.6-18.4,24.8-28.7c7-10,13.5-20.9,17.5-32.6c6.8-20-4.1-39.6-26-50.1c-4.2-2-8.6-3.8-12.9-5.8
					c-8.7-4-14.8-10-14.6-19.2c0.2-9.5,7.3-13,15.8-13.6c28.6-2.1,54.1,7.9,76.1,29.7c23.5,23.3,28.6,50.1,27.1,78.1
					c-1.2,21.4-10.3,38.4-24.4,52.7c-9.5,9.7-18.6,19.7-28.4,29.1c-35.6,34-17.4,99,2.2,135.7c31.8,59.6,105.8,171,112.4,179.5
					L399.7,537.2z"/>
			</g>
			<g>
				
					<linearGradient id="SVGID_6_" gradientUnits="userSpaceOnUse" x1="81.1973" y1="627.4213" x2="507.3133" y2="627.4213" gradientTransform="matrix(0.4393 0.9833 -0.9084 0.3282 729.1249 -107.5221)">
					<stop  offset="2.141524e-02" style="stop-color:#15A8FF"/>
					<stop  offset="0.1321" style="stop-color:#1A9FFF"/>
					<stop  offset="0.3128" style="stop-color:#2687FE"/>
					<stop  offset="0.5409" style="stop-color:#3B5FFE"/>
					<stop  offset="0.8049" style="stop-color:#5728FD"/>
					<stop  offset="0.9814" style="stop-color:#6C00FC"/>
				</linearGradient>
				<path class="st8" d="M416.7,584.7c-11-4.9-117.4-57.2-129.5-63.7c-28.5-15.4-64.8-35.7-86.7-65.4
					c-23.5-31.9-32.6-66.8-27.9-104.6c1.6-13,4.1-25.9,4.3-38.9c0.2-12.6-0.4-25.7-3.5-38c-5.3-21-24.4-31.5-47.2-27.9
					c-4.4,0.7-8.8,1.7-13.2,2.5c-9,1.6-17,0-21.8-8c-4.9-8.2-1.2-15.3,5.2-20.8c21.4-18.3,47-24.4,75.9-18.5
					c31,6.4,49.3,26.3,62.9,51.1c10.5,19,12.3,38.7,8.8,59.1c-2.4,13.7-4.2,27.6-7,41.2c-10,49.5,39,94.7,74,114.7
					c56.8,32.6,174.6,85.2,184.3,88.6L416.7,584.7z"/>
			</g>
			<g>
				
					<linearGradient id="SVGID_7_" gradientUnits="userSpaceOnUse" x1="83.2743" y1="643.4896" x2="509.3903" y2="643.4896" gradientTransform="matrix(0.8705 0.5872 -0.5424 0.8042 340.3974 -170.3763)">
					<stop  offset="2.141524e-02" style="stop-color:#15A8FF"/>
					<stop  offset="0.1321" style="stop-color:#1A9FFF"/>
					<stop  offset="0.3128" style="stop-color:#2687FE"/>
					<stop  offset="0.5409" style="stop-color:#3B5FFE"/>
					<stop  offset="0.8049" style="stop-color:#5728FD"/>
					<stop  offset="0.9814" style="stop-color:#6C00FC"/>
				</linearGradient>
				<path class="st9" d="M455.5,615.5c-11.3,2.1-123.2,18.8-136.2,20.2c-30.7,3.3-70.2,6.8-103.3-5.9
					c-35.6-13.7-61.3-38.3-77.7-73.3c-5.6-12-10.5-24.5-17.3-35.7c-6.6-10.9-14-21.7-23-30.4c-15.4-14.9-36-12.8-52.1,3.4
					c-3.1,3.2-6.1,6.5-9.1,9.7c-6.3,6.6-13.4,9.8-21.4,5.7c-8.2-4.2-9.1-12.4-6.9-20.8c7.2-28,24.1-48,50.1-59.5
					c27.9-12.4,52.9-5.9,76.9,7.4c18.4,10.2,30.4,26,38.4,45.5c5.4,13.1,11.4,26,16.5,39.2c18.5,48.1,81.2,58.4,119.5,55.4
					c62.2-4.9,183.2-27.9,192.7-30.5L455.5,615.5z"/>
			</g>
			<g>
				<linearGradient id="SVGID_8_" gradientUnits="userSpaceOnUse" x1="76.3666" y1="657.6307" x2="502.4825" y2="657.6307">
					<stop  offset="2.141524e-02" style="stop-color:#15A8FF"/>
					<stop  offset="0.1321" style="stop-color:#1A9FFF"/>
					<stop  offset="0.3128" style="stop-color:#2687FE"/>
					<stop  offset="0.5409" style="stop-color:#3B5FFE"/>
					<stop  offset="0.8049" style="stop-color:#5728FD"/>
					<stop  offset="0.9814" style="stop-color:#6C00FC"/>
				</linearGradient>
				<path class="st10" d="M502.5,619.4c-7.8,8.3-87.3,87.1-96.8,95.7c-22.5,20.5-51.8,46.3-84.7,54.5c-35.4,8.8-68.8,2.6-100.4-17.8
					c-10.8-7-21.4-14.9-32.7-20.6c-11-5.5-22.6-10.4-34.4-12.7c-20.1-3.9-35.2,9.8-39.3,32.9c-0.8,4.5-1.3,9.1-2,13.6
					c-1.4,9.2-5.4,16.1-13.9,17.3c-8.7,1.2-13.8-5.4-16.6-13.8c-9.2-28-6.5-54.9,7.8-79.7c15.4-26.7,38.7-35.5,64.7-38
					c19.9-1.9,37.8,4.7,54.6,16.7c11.3,8.1,22.8,15.7,33.9,24c40.2,30.4,95.2,3.1,123.9-21.5c46.5-40.1,129.8-129.4,135.9-137.2
					V619.4z"/>
			</g>
		</g>
	</g>
	<g class="st1">
		<g>
			<g>
				<path d="M502.5,684.8c10.6,0.1,20.9,7.3,19.9,18.2c-1.3,14.3-3.9,28.6-6.7,42.8c-8.8,45.7-5.5,89.9,18.9,130.5
					c26.6,44.1,64.4,69.5,118,65c55.4-4.6,94.6-57,82.7-109.9c-8.9-39.5-48.5-63.2-86.6-51.8c-26.5,7.9-43,32.9-39.9,60.5
					c0.9,7.9,4.4,13.5,12.6,13.7c8.4,0.1,13.1-5.3,14.7-13.2c1-4.8,0.5-10,2.2-14.5c4.4-11.9,14-17,26.1-17.3
					c14.4-0.4,24.6,6.9,30.8,19.2c15.4,30.2-10.8,67.1-45.7,65c-24.2-1.4-42.1-13.4-55.5-32.9c-16.7-24.3-19.7-51.7-18-80.1
					c0.4-7.5,1.3-15.1,2.4-22.5c3.2-20.4,6.6-40.7,10.3-63.4l36-182.6c4-16.5,8.2-33.1,14.3-48.8c8.1-21.1,18.9-41.2,27.3-62.2
					c37-92.3-1.2-193.3-88.9-235.7c-24.2-11.7-49.9-16.9-75.1-16.4V684.8z M559.7,414c-0.1-17.7,13.7-31.8,31.5-32.2
					c17.4-0.3,31.7,13.8,31.9,31.8c0.2,17.1-13.6,31.1-31.1,31.4C573.8,445.3,559.8,431.8,559.7,414z"/>
			</g>
			<g>
				<g>
					<path class="st11" d="M502.5,684.8c-10.6,0.1-20.9,7.3-19.9,18.2c1.3,14.3,3.9,28.6,6.7,42.8c8.8,45.7,5.5,89.9-18.9,130.5
						c-26.6,44.1-64.4,69.5-118,65c-55.4-4.6-94.6-57-82.7-109.9c8.9-39.5,48.5-63.2,86.6-51.8c26.5,7.9,43,32.9,39.9,60.5
						c-0.9,7.9-4.4,13.5-12.6,13.7c-8.4,0.1-13.1-5.3-14.7-13.2c-1-4.8-0.5-10-2.2-14.5c-4.4-11.9-14-17-26.1-17.3
						c-14.4-0.4-24.6,6.9-30.8,19.2c-15.4,30.2,10.8,67.1,45.7,65c24.2-1.4,42.1-13.4,55.5-32.9c16.7-24.3,19.7-51.7,18-80.1
						c-0.4-7.5-1.3-15.1-2.4-22.5c-3.2-20.4-6.6-40.7-10.3-63.4l-36-182.6c-4-16.5-8.2-33.1-14.3-48.8
						c-8.1-21.1-18.9-41.2-27.3-62.2c-37-92.3,1.2-193.3,88.9-235.7c24.2-11.7,49.9-16.9,75.1-16.4V684.8z M445.3,414
						c0.1-17.7-13.7-31.8-31.5-32.2c-17.4-0.3-31.7,13.8-31.9,31.8c-0.2,17.1,13.6,31.1,31.1,31.4
						C431.2,445.3,445.2,431.8,445.3,414z"/>
				</g>
			</g>
		</g>
		<g>
			<g>
				<linearGradient id="SVGID_9_" gradientUnits="userSpaceOnUse" x1="502.4825" y1="171.5073" x2="502.4825" y2="965.1837">
					<stop  offset="4.475343e-07" style="stop-color:#15A8FF"/>
					<stop  offset="2.489676e-02" style="stop-color:#19A0FF"/>
					<stop  offset="0.1992" style="stop-color:#3270FE"/>
					<stop  offset="0.3725" style="stop-color:#4748FD"/>
					<stop  offset="0.5414" style="stop-color:#5728FD"/>
					<stop  offset="0.705" style="stop-color:#6312FC"/>
					<stop  offset="0.8606" style="stop-color:#6A05FC"/>
					<stop  offset="1" style="stop-color:#6C00FC"/>
				</linearGradient>
				<path class="st12" d="M502.5,684.8c10.6,0.1,20.9,7.3,19.9,18.2c-1.3,14.3-3.9,28.6-6.7,42.8c-8.8,45.7-5.5,89.9,18.9,130.5
					c26.6,44.1,64.4,69.5,118,65c55.4-4.6,94.6-57,82.7-109.9c-8.9-39.5-48.5-63.2-86.6-51.8c-26.5,7.9-43,32.9-39.9,60.5
					c0.9,7.9,4.4,13.5,12.6,13.7c8.4,0.1,13.1-5.3,14.7-13.2c1-4.8,0.5-10,2.2-14.5c4.4-11.9,14-17,26.1-17.3
					c14.4-0.4,24.6,6.9,30.8,19.2c15.4,30.2-10.8,67.1-45.7,65c-24.2-1.4-42.1-13.4-55.5-32.9c-16.7-24.3-19.7-51.7-18-80.1
					c0.4-7.5,1.3-15.1,2.4-22.5c3.2-20.4,6.6-40.7,10.3-63.4l36-182.6c4-16.5,8.2-33.1,14.3-48.8c8.1-21.1,18.9-41.2,27.3-62.2
					c37-92.3-1.2-193.3-88.9-235.7c-24.2-11.7-49.9-16.9-75.1-16.4V684.8z M559.7,414c-0.1-17.7,13.7-31.8,31.5-32.2
					c17.4-0.3,31.7,13.8,31.9,31.8c0.2,17.1-13.6,31.1-31.1,31.4C573.8,445.3,559.8,431.8,559.7,414z"/>
			</g>
			<g>
				<g>
					<linearGradient id="SVGID_10_" gradientUnits="userSpaceOnUse" x1="502.4825" y1="171.5073" x2="502.4825" y2="965.1837">
						<stop  offset="4.475343e-07" style="stop-color:#15A8FF"/>
						<stop  offset="2.489676e-02" style="stop-color:#19A0FF"/>
						<stop  offset="0.1992" style="stop-color:#3270FE"/>
						<stop  offset="0.3725" style="stop-color:#4748FD"/>
						<stop  offset="0.5414" style="stop-color:#5728FD"/>
						<stop  offset="0.705" style="stop-color:#6312FC"/>
						<stop  offset="0.8606" style="stop-color:#6A05FC"/>
						<stop  offset="1" style="stop-color:#6C00FC"/>
					</linearGradient>
					<path class="st13" d="M502.5,684.8c-10.6,0.1-20.9,7.3-19.9,18.2c1.3,14.3,3.9,28.6,6.7,42.8c8.8,45.7,5.5,89.9-18.9,130.5
						c-26.6,44.1-64.4,69.5-118,65c-55.4-4.6-94.6-57-82.7-109.9c8.9-39.5,48.5-63.2,86.6-51.8c26.5,7.9,43,32.9,39.9,60.5
						c-0.9,7.9-4.4,13.5-12.6,13.7c-8.4,0.1-13.1-5.3-14.7-13.2c-1-4.8-0.5-10-2.2-14.5c-4.4-11.9-14-17-26.1-17.3
						c-14.4-0.4-24.6,6.9-30.8,19.2c-15.4,30.2,10.8,67.1,45.7,65c24.2-1.4,42.1-13.4,55.5-32.9c16.7-24.3,19.7-51.7,18-80.1
						c-0.4-7.5-1.3-15.1-2.4-22.5c-3.2-20.4-6.6-40.7-10.3-63.4l-36-182.6c-4-16.5-8.2-33.1-14.3-48.8
						c-8.1-21.1-18.9-41.2-27.3-62.2c-37-92.3,1.2-193.3,88.9-235.7c24.2-11.7,49.9-16.9,75.1-16.4V684.8z M445.3,414
						c0.1-17.7-13.7-31.8-31.5-32.2c-17.4-0.3-31.7,13.8-31.9,31.8c-0.2,17.1,13.6,31.1,31.1,31.4
						C431.2,445.3,445.2,431.8,445.3,414z"/>
				</g>
			</g>
		</g>
	</g>
</g>
<g id="Calque_3_-_copie_2">
	<g>
		<g>
			<g>
				<path class="st14" d="M598,539.8c6.3-9.3,64.5-103.3,70.8-114.4c14.9-26.2,33.5-60,35.8-93.3c2.5-35.7-8.1-65.9-31.2-91.1
					c-7.9-8.6-16.5-16.8-23.3-26.2c-6.6-9.1-12.8-19-16.6-29.6c-6.5-18.1,3.4-35.8,23.4-45.1c3.9-1.8,7.9-3.4,11.8-5.1
					c8-3.5,13.6-8.9,13.3-17.2c-0.3-8.6-6.9-11.8-14.8-12.5c-26.4-2.2-50,6.7-70,26.2c-21.5,20.9-25.9,45.1-24.1,70.3
					c1.3,19.4,9.9,34.8,23.2,47.9c8.9,8.8,17.4,18,26.6,26.5c33.3,31,17.2,89.7-0.4,122.6c-28.7,53.6-95.9,153.7-101.9,161.3
					L598,539.8z"/>
			</g>
			<g>
				<path class="st14" d="M584.2,583.8c10.3-4.5,110.2-52.2,121.5-58.2c26.7-14.1,60.7-32.7,81-60.3c21.8-29.7,29.8-62.3,24.9-97.9
					c-1.7-12.2-4.3-24.4-4.6-36.6c-0.4-11.9,0-24.1,2.8-35.6c4.7-19.7,22.6-29.2,44.2-25.5c4.2,0.7,8.4,1.7,12.5,2.5
					c8.5,1.6,16.1,0.2,20.5-7.2c4.5-7.6,0.9-14.4-5.2-19.6c-20.5-17.4-44.7-23.6-72-18.4c-29.2,5.6-46.2,24.1-58.8,47.2
					c-9.6,17.7-11.1,36.2-7.5,55.4c2.4,12.9,4.4,26,7.2,38.8c10.1,46.7-35.5,88.4-68.3,106.8c-53.3,29.9-163.8,77.7-172.9,80.8
					L584.2,583.8z"/>
			</g>
			<g>
				<path class="st14" d="M548.5,614c10.9,2.2,119.3,19.3,131.9,20.7c29.7,3.5,68,7.2,99.9-4.9c34.3-13.1,59-36.8,74.6-70.8
					c5.4-11.6,10-23.8,16.4-34.7c6.3-10.6,13.4-21,22-29.4c14.7-14.4,34.7-12.2,50.4,3.7c3.1,3.1,5.9,6.4,8.9,9.6
					c6.1,6.5,13.1,9.7,20.8,5.8c7.9-4,8.7-12,6.5-20.2c-7.2-27.3-23.7-46.9-48.9-58.4c-27.1-12.3-51.2-6.2-74.3,6.6
					c-17.7,9.8-29.2,25.1-36.8,44c-5.2,12.7-10.8,25.2-15.6,38.1c-17.5,46.7-78.1,56.2-115.2,53c-60.2-5.3-177.4-28.6-186.7-31.3
					L548.5,614z"/>
			</g>
			<g>
				<path class="st14" d="M502.5,619.4c7.8,8.3,87.3,87.1,96.8,95.7c22.5,20.5,51.8,46.3,84.7,54.5c35.4,8.8,68.8,2.6,100.4-17.8
					c10.8-7,21.4-14.9,32.7-20.6c11-5.5,22.6-10.4,34.4-12.7c20.1-3.9,35.2,9.8,39.3,32.9c0.8,4.5,1.3,9.1,2,13.6
					c1.4,9.2,5.4,16.1,13.9,17.3c8.7,1.2,13.8-5.4,16.6-13.8c9.2-28,6.5-54.9-7.8-79.7c-15.4-26.7-38.7-35.5-64.7-38
					c-19.9-1.9-37.8,4.7-54.6,16.7c-11.3,8.1-22.8,15.7-33.9,24C722,722,667,694.6,638.4,670c-46.5-40.1-129.8-129.4-135.9-137.2
					V619.4z"/>
			</g>
		</g>
		<g>
			<g>
				<path class="st14" d="M407,539.8c-6.3-9.3-64.5-103.3-70.8-114.4c-14.9-26.2-33.5-60-35.8-93.3c-2.5-35.7,8.1-65.9,31.2-91.1
					c7.9-8.6,16.5-16.8,23.3-26.2c6.6-9.1,12.8-19,16.6-29.6c6.5-18.1-3.4-35.8-23.4-45.1c-3.9-1.8-7.9-3.4-11.8-5.1
					c-8-3.5-13.6-8.9-13.3-17.2c0.3-8.6,6.9-11.8,14.8-12.5c26.4-2.2,50,6.7,70,26.2c21.5,20.9,25.9,45.1,24.1,70.3
					c-1.3,19.4-9.9,34.8-23.2,47.9c-8.9,8.8-17.4,18-26.6,26.5c-33.3,31-17.2,89.7,0.4,122.6c28.7,53.6,95.9,153.7,101.9,161.3
					L407,539.8z"/>
			</g>
			<g>
				<path class="st14" d="M420.8,583.8c-10.3-4.5-110.2-52.2-121.5-58.2c-26.7-14.1-60.7-32.7-81-60.3
					c-21.8-29.7-29.8-62.3-24.9-97.9c1.7-12.2,4.3-24.4,4.6-36.6c0.4-11.9,0-24.1-2.8-35.6c-4.7-19.7-22.6-29.2-44.2-25.5
					c-4.2,0.7-8.4,1.7-12.5,2.5c-8.5,1.6-16.1,0.2-20.5-7.2c-4.5-7.6-0.9-14.4,5.2-19.6c20.5-17.4,44.7-23.6,72-18.4
					c29.2,5.6,46.2,24.1,58.8,47.2c9.6,17.7,11.1,36.2,7.5,55.4c-2.4,12.9-4.4,26-7.2,38.8c-10.1,46.7,35.5,88.4,68.3,106.8
					c53.3,29.9,163.8,77.7,172.9,80.8L420.8,583.8z"/>
			</g>
			<g>
				<path class="st14" d="M456.5,614c-10.9,2.2-119.3,19.3-131.9,20.7c-29.7,3.5-68,7.2-99.9-4.9c-34.3-13.1-59-36.8-74.6-70.8
					c-5.4-11.6-10-23.8-16.4-34.7c-6.3-10.6-13.4-21-22-29.4c-14.7-14.4-34.7-12.2-50.4,3.7c-3.1,3.1-5.9,6.4-8.9,9.6
					c-6.1,6.5-13.1,9.7-20.8,5.8c-7.9-4-8.7-12-6.5-20.2c7.2-27.3,23.7-46.9,48.9-58.4c27.1-12.3,51.2-6.2,74.3,6.6
					c17.7,9.8,29.2,25.1,36.8,44c5.2,12.7,10.8,25.2,15.6,38.1c17.5,46.7,78.1,56.2,115.2,53c60.2-5.3,177.4-28.6,186.7-31.3
					L456.5,614z"/>
			</g>
			<g>
				<path class="st14" d="M502.5,619.4c-7.8,8.3-87.3,87.1-96.8,95.7c-22.5,20.5-51.8,46.3-84.7,54.5c-35.4,8.8-68.8,2.6-100.4-17.8
					c-10.8-7-21.4-14.9-32.7-20.6c-11-5.5-22.6-10.4-34.4-12.7c-20.1-3.9-35.2,9.8-39.3,32.9c-0.8,4.5-1.3,9.1-2,13.6
					c-1.4,9.2-5.4,16.1-13.9,17.3c-8.7,1.2-13.8-5.4-16.6-13.8c-9.2-28-6.5-54.9,7.8-79.7c15.4-26.7,38.7-35.5,64.7-38
					c19.9-1.9,37.8,4.7,54.6,16.7c11.3,8.1,22.8,15.7,33.9,24c40.2,30.4,95.2,3.1,123.9-21.5c46.5-40.1,129.8-129.4,135.9-137.2
					V619.4z"/>
			</g>
		</g>
	</g>
	<g>
		<g>
			<g>
				<path class="st14" d="M502.5,684.8c10.6,0.1,20.9,7.3,19.9,18.2c-1.3,14.3-3.9,28.6-6.7,42.8c-8.8,45.7-5.5,89.9,18.9,130.5
					c26.6,44.1,64.4,69.5,118,65c55.4-4.6,94.6-57,82.7-109.9c-8.9-39.5-48.5-63.2-86.6-51.8c-26.5,7.9-43,32.9-39.9,60.5
					c0.9,7.9,4.4,13.5,12.6,13.7c8.4,0.1,13.1-5.3,14.7-13.2c1-4.8,0.5-10,2.2-14.5c4.4-11.9,14-17,26.1-17.3
					c14.4-0.4,24.6,6.9,30.8,19.2c15.4,30.2-10.8,67.1-45.7,65c-24.2-1.4-42.1-13.4-55.5-32.9c-16.7-24.3-19.7-51.7-18-80.1
					c0.4-7.5,1.3-15.1,2.4-22.5c3.2-20.4,6.6-40.7,10.3-63.4l36-182.6c4-16.5,8.2-33.1,14.3-48.8c8.1-21.1,18.9-41.2,27.3-62.2
					c37-92.3-1.2-193.3-88.9-235.7c-24.2-11.7-49.9-16.9-75.1-16.4V684.8z"/>
			</g>
			<g>
				<g>
					<path class="st14" d="M502.5,684.8c-10.6,0.1-20.9,7.3-19.9,18.2c1.3,14.3,3.9,28.6,6.7,42.8c8.8,45.7,5.5,89.9-18.9,130.5
						c-26.6,44.1-64.4,69.5-118,65c-55.4-4.6-94.6-57-82.7-109.9c8.9-39.5,48.5-63.2,86.6-51.8c26.5,7.9,43,32.9,39.9,60.5
						c-0.9,7.9-4.4,13.5-12.6,13.7c-8.4,0.1-13.1-5.3-14.7-13.2c-1-4.8-0.5-10-2.2-14.5c-4.4-11.9-14-17-26.1-17.3
						c-14.4-0.4-24.6,6.9-30.8,19.2c-15.4,30.2,10.8,67.1,45.7,65c24.2-1.4,42.1-13.4,55.5-32.9c16.7-24.3,19.7-51.7,18-80.1
						c-0.4-7.5-1.3-15.1-2.4-22.5c-3.2-20.4-6.6-40.7-10.3-63.4l-36-182.6c-4-16.5-8.2-33.1-14.3-48.8
						c-8.1-21.1-18.9-41.2-27.3-62.2c-37-92.3,1.2-193.3,88.9-235.7c24.2-11.7,49.9-16.9,75.1-16.4V684.8z"/>
				</g>
			</g>
		</g>
	</g>
	<g>
		<g>
			<g>
				<g>
					<circle class="st11" cx="588.1" cy="396.5" r="26.9"/>
				</g>
			</g>
		</g>
		<g>
			<g>
				<g>
					<circle class="st11" cx="416.9" cy="396.5" r="26.9"/>
				</g>
			</g>
		</g>
	</g>
</g>
<g id="Calque_3_-_copie_3" class="st0">
	<g class="st1">
		<g>
			<g>
				
					<linearGradient id="SVGID_11_" gradientUnits="userSpaceOnUse" x1="76.3666" y1="657.6307" x2="502.4825" y2="657.6307" gradientTransform="matrix(0.151 1.0486 0.9687 -0.2694 -70.669 177.1543)">
					<stop  offset="2.141524e-02" style="stop-color:#15A8FF"/>
					<stop  offset="0.1454" style="stop-color:#18A2FF"/>
					<stop  offset="0.3029" style="stop-color:#2093FF"/>
					<stop  offset="0.4785" style="stop-color:#2E79FF"/>
					<stop  offset="0.6661" style="stop-color:#4055FE"/>
					<stop  offset="0.7505" style="stop-color:#4A42FE"/>
				</linearGradient>
				<path class="st15" d="M605.3,537.2c6.9-10.4,71.2-115,78.1-127.3c16.5-29.1,37.1-66.8,40-103.6c3.2-39.5-7.9-72.9-32.4-100.5
					c-8.4-9.5-17.6-18.4-24.8-28.7c-7-10-13.5-20.9-17.5-32.6c-6.8-20,4.1-39.6,26-50.1c4.2-2,8.6-3.8,12.9-5.8
					c8.7-4,14.8-10,14.6-19.2c-0.2-9.5-7.3-13-15.8-13.6c-28.6-2.1-54.1,7.9-76.1,29.7c-23.5,23.3-28.6,50.1-27.1,78.1
					c1.2,21.4,10.3,38.4,24.4,52.7c9.5,9.7,18.6,19.7,28.4,29.1c35.6,34,17.4,99-2.2,135.7c-31.8,59.6-105.8,171-112.4,179.5
					L605.3,537.2z"/>
			</g>
			<g>
				
					<linearGradient id="SVGID_12_" gradientUnits="userSpaceOnUse" x1="76.3666" y1="657.6307" x2="502.4825" y2="657.6307" gradientTransform="matrix(-0.4393 0.9833 0.9084 0.3282 246.2772 -112.6869)">
					<stop  offset="2.141524e-02" style="stop-color:#15A8FF"/>
					<stop  offset="0.1454" style="stop-color:#18A2FF"/>
					<stop  offset="0.3029" style="stop-color:#2093FF"/>
					<stop  offset="0.4785" style="stop-color:#2E79FF"/>
					<stop  offset="0.6661" style="stop-color:#4055FE"/>
					<stop  offset="0.7505" style="stop-color:#4A42FE"/>
				</linearGradient>
				<path class="st16" d="M588.2,584.7c11-4.9,117.4-57.2,129.5-63.7c28.5-15.4,64.8-35.7,86.7-65.4c23.5-31.9,32.6-66.8,27.9-104.6
					c-1.6-13-4.1-25.9-4.3-38.9c-0.2-12.6,0.4-25.7,3.5-38c5.3-21,24.4-31.5,47.2-27.9c4.4,0.7,8.8,1.7,13.2,2.5c9,1.6,17,0,21.8-8
					c4.9-8.2,1.2-15.3-5.2-20.8c-21.4-18.3-47-24.4-75.9-18.5c-31,6.4-49.3,26.3-62.9,51.1c-10.5,19-12.3,38.7-8.8,59.1
					c2.4,13.7,4.2,27.6,7,41.2c10,49.5-39,94.7-74,114.7c-56.8,32.6-174.6,85.2-184.3,88.6L588.2,584.7z"/>
			</g>
			<g>
				
					<linearGradient id="SVGID_13_" gradientUnits="userSpaceOnUse" x1="76.3666" y1="657.6307" x2="502.4825" y2="657.6307" gradientTransform="matrix(-0.8705 0.5872 0.5424 0.8042 650.8842 -177.6922)">
					<stop  offset="2.141524e-02" style="stop-color:#15A8FF"/>
					<stop  offset="0.1454" style="stop-color:#18A2FF"/>
					<stop  offset="0.3029" style="stop-color:#2093FF"/>
					<stop  offset="0.4785" style="stop-color:#2E79FF"/>
					<stop  offset="0.6661" style="stop-color:#4055FE"/>
					<stop  offset="0.7505" style="stop-color:#4A42FE"/>
				</linearGradient>
				<path class="st17" d="M549.5,615.5c11.3,2.1,123.2,18.8,136.2,20.2c30.7,3.3,70.2,6.8,103.3-5.9c35.6-13.7,61.3-38.3,77.7-73.3
					c5.6-12,10.5-24.5,17.3-35.7c6.6-10.9,14-21.7,23-30.4c15.4-14.9,36-12.8,52.1,3.4c3.1,3.2,6.1,6.5,9.1,9.7
					c6.3,6.6,13.4,9.8,21.4,5.7c8.2-4.2,9.1-12.4,6.9-20.8c-7.2-28-24.1-48-50.1-59.5c-27.9-12.4-52.9-5.9-76.9,7.4
					c-18.4,10.2-30.4,26-38.4,45.5c-5.4,13.1-11.4,26-16.5,39.2c-18.5,48.1-81.2,58.4-119.5,55.4c-62.2-4.9-183.2-27.9-192.7-30.5
					L549.5,615.5z"/>
			</g>
			<g>
				
					<linearGradient id="SVGID_14_" gradientUnits="userSpaceOnUse" x1="76.3666" y1="657.6307" x2="502.4825" y2="657.6307" gradientTransform="matrix(-1 0 0 1 1004.9651 0)">
					<stop  offset="2.141524e-02" style="stop-color:#15A8FF"/>
					<stop  offset="0.1454" style="stop-color:#18A2FF"/>
					<stop  offset="0.3029" style="stop-color:#2093FF"/>
					<stop  offset="0.4785" style="stop-color:#2E79FF"/>
					<stop  offset="0.6661" style="stop-color:#4055FE"/>
					<stop  offset="0.7505" style="stop-color:#4A42FE"/>
				</linearGradient>
				<path class="st18" d="M502.5,619.4c7.8,8.3,87.3,87.1,96.8,95.7c22.5,20.5,51.8,46.3,84.7,54.5c35.4,8.8,68.8,2.6,100.4-17.8
					c10.8-7,21.4-14.9,32.7-20.6c11-5.5,22.6-10.4,34.4-12.7c20.1-3.9,35.2,9.8,39.3,32.9c0.8,4.5,1.3,9.1,2,13.6
					c1.4,9.2,5.4,16.1,13.9,17.3c8.7,1.2,13.8-5.4,16.6-13.8c9.2-28,6.5-54.9-7.8-79.7c-15.4-26.7-38.7-35.5-64.7-38
					c-19.9-1.9-37.8,4.7-54.6,16.7c-11.3,8.1-22.8,15.7-33.9,24C722,722,667,694.6,638.4,670c-46.5-40.1-129.8-129.4-135.9-137.2
					V619.4z"/>
			</g>
		</g>
		<g>
			<g>
				
					<linearGradient id="SVGID_15_" gradientUnits="userSpaceOnUse" x1="76.3666" y1="657.6307" x2="502.4825" y2="657.6307" gradientTransform="matrix(-0.151 1.0486 -0.9687 -0.2694 1075.634 177.1543)">
					<stop  offset="2.141524e-02" style="stop-color:#15A8FF"/>
					<stop  offset="0.1454" style="stop-color:#18A2FF"/>
					<stop  offset="0.3029" style="stop-color:#2093FF"/>
					<stop  offset="0.4785" style="stop-color:#2E79FF"/>
					<stop  offset="0.6661" style="stop-color:#4055FE"/>
					<stop  offset="0.7505" style="stop-color:#4A42FE"/>
				</linearGradient>
				<path class="st19" d="M399.7,537.2c-6.9-10.4-71.2-115-78.1-127.3c-16.5-29.1-37.1-66.8-40-103.6c-3.2-39.5,7.9-72.9,32.4-100.5
					c8.4-9.5,17.6-18.4,24.8-28.7c7-10,13.5-20.9,17.5-32.6c6.8-20-4.1-39.6-26-50.1c-4.2-2-8.6-3.8-12.9-5.8
					c-8.7-4-14.8-10-14.6-19.2c0.2-9.5,7.3-13,15.8-13.6c28.6-2.1,54.1,7.9,76.1,29.7c23.5,23.3,28.6,50.1,27.1,78.1
					c-1.2,21.4-10.3,38.4-24.4,52.7c-9.5,9.7-18.6,19.7-28.4,29.1c-35.6,34-17.4,99,2.2,135.7c31.8,59.6,105.8,171,112.4,179.5
					L399.7,537.2z"/>
			</g>
			<g>
				
					<linearGradient id="SVGID_16_" gradientUnits="userSpaceOnUse" x1="76.3666" y1="657.6307" x2="502.4825" y2="657.6307" gradientTransform="matrix(0.4393 0.9833 -0.9084 0.3282 758.688 -112.6869)">
					<stop  offset="2.141524e-02" style="stop-color:#15A8FF"/>
					<stop  offset="0.1454" style="stop-color:#18A2FF"/>
					<stop  offset="0.3029" style="stop-color:#2093FF"/>
					<stop  offset="0.4785" style="stop-color:#2E79FF"/>
					<stop  offset="0.6661" style="stop-color:#4055FE"/>
					<stop  offset="0.7505" style="stop-color:#4A42FE"/>
				</linearGradient>
				<path class="st20" d="M416.7,584.7c-11-4.9-117.4-57.2-129.5-63.7c-28.5-15.4-64.8-35.7-86.7-65.4
					c-23.5-31.9-32.6-66.8-27.9-104.6c1.6-13,4.1-25.9,4.3-38.9c0.2-12.6-0.4-25.7-3.5-38c-5.3-21-24.4-31.5-47.2-27.9
					c-4.4,0.7-8.8,1.7-13.2,2.5c-9,1.6-17,0-21.8-8c-4.9-8.2-1.2-15.3,5.2-20.8c21.4-18.3,47-24.4,75.9-18.5
					c31,6.4,49.3,26.3,62.9,51.1c10.5,19,12.3,38.7,8.8,59.1c-2.4,13.7-4.2,27.6-7,41.2c-10,49.5,39,94.7,74,114.7
					c56.8,32.6,174.6,85.2,184.3,88.6L416.7,584.7z"/>
			</g>
			<g>
				
					<linearGradient id="SVGID_17_" gradientUnits="userSpaceOnUse" x1="76.3666" y1="657.6307" x2="502.4825" y2="657.6307" gradientTransform="matrix(0.8705 0.5872 -0.5424 0.8042 354.0809 -177.6922)">
					<stop  offset="2.141524e-02" style="stop-color:#15A8FF"/>
					<stop  offset="0.1454" style="stop-color:#18A2FF"/>
					<stop  offset="0.3029" style="stop-color:#2093FF"/>
					<stop  offset="0.4785" style="stop-color:#2E79FF"/>
					<stop  offset="0.6661" style="stop-color:#4055FE"/>
					<stop  offset="0.7505" style="stop-color:#4A42FE"/>
				</linearGradient>
				<path class="st21" d="M455.5,615.5c-11.3,2.1-123.2,18.8-136.2,20.2c-30.7,3.3-70.2,6.8-103.3-5.9
					c-35.6-13.7-61.3-38.3-77.7-73.3c-5.6-12-10.5-24.5-17.3-35.7c-6.6-10.9-14-21.7-23-30.4c-15.4-14.9-36-12.8-52.1,3.4
					c-3.1,3.2-6.1,6.5-9.1,9.7c-6.3,6.6-13.4,9.8-21.4,5.7c-8.2-4.2-9.1-12.4-6.9-20.8c7.2-28,24.1-48,50.1-59.5
					c27.9-12.4,52.9-5.9,76.9,7.4c18.4,10.2,30.4,26,38.4,45.5c5.4,13.1,11.4,26,16.5,39.2c18.5,48.1,81.2,58.4,119.5,55.4
					c62.2-4.9,183.2-27.9,192.7-30.5L455.5,615.5z"/>
			</g>
			<g>
				<linearGradient id="SVGID_18_" gradientUnits="userSpaceOnUse" x1="76.3666" y1="657.6307" x2="502.4825" y2="657.6307">
					<stop  offset="2.141524e-02" style="stop-color:#15A8FF"/>
					<stop  offset="0.1454" style="stop-color:#18A2FF"/>
					<stop  offset="0.3029" style="stop-color:#2093FF"/>
					<stop  offset="0.4785" style="stop-color:#2E79FF"/>
					<stop  offset="0.6661" style="stop-color:#4055FE"/>
					<stop  offset="0.7505" style="stop-color:#4A42FE"/>
				</linearGradient>
				<path class="st22" d="M502.5,619.4c-7.8,8.3-87.3,87.1-96.8,95.7c-22.5,20.5-51.8,46.3-84.7,54.5c-35.4,8.8-68.8,2.6-100.4-17.8
					c-10.8-7-21.4-14.9-32.7-20.6c-11-5.5-22.6-10.4-34.4-12.7c-20.1-3.9-35.2,9.8-39.3,32.9c-0.8,4.5-1.3,9.1-2,13.6
					c-1.4,9.2-5.4,16.1-13.9,17.3c-8.7,1.2-13.8-5.4-16.6-13.8c-9.2-28-6.5-54.9,7.8-79.7c15.4-26.7,38.7-35.5,64.7-38
					c19.9-1.9,37.8,4.7,54.6,16.7c11.3,8.1,22.8,15.7,33.9,24c40.2,30.4,95.2,3.1,123.9-21.5c46.5-40.1,129.8-129.4,135.9-137.2
					V619.4z"/>
			</g>
		</g>
	</g>
	<g class="st1">
		<g>
			<g>
				<path d="M502.5,684.8c10.6,0.1,20.9,7.3,19.9,18.2c-1.3,14.3-3.9,28.6-6.7,42.8c-8.8,45.7-5.5,89.9,18.9,130.5
					c26.6,44.1,64.4,69.5,118,65c55.4-4.6,94.6-57,82.7-109.9c-8.9-39.5-48.5-63.2-86.6-51.8c-26.5,7.9-43,32.9-39.9,60.5
					c0.9,7.9,4.4,13.5,12.6,13.7c8.4,0.1,13.1-5.3,14.7-13.2c1-4.8,0.5-10,2.2-14.5c4.4-11.9,14-17,26.1-17.3
					c14.4-0.4,24.6,6.9,30.8,19.2c15.4,30.2-10.8,67.1-45.7,65c-24.2-1.4-42.1-13.4-55.5-32.9c-16.7-24.3-19.7-51.7-18-80.1
					c0.4-7.5,1.3-15.1,2.4-22.5c3.2-20.4,6.6-40.7,10.3-63.4l36-182.6c4-16.5,8.2-33.1,14.3-48.8c8.1-21.1,18.9-41.2,27.3-62.2
					c37-92.3-1.2-193.3-88.9-235.7c-24.2-11.7-49.9-16.9-75.1-16.4V684.8z"/>
			</g>
			<g>
				<g>
					<path class="st11" d="M502.5,684.8c-10.6,0.1-20.9,7.3-19.9,18.2c1.3,14.3,3.9,28.6,6.7,42.8c8.8,45.7,5.5,89.9-18.9,130.5
						c-26.6,44.1-64.4,69.5-118,65c-55.4-4.6-94.6-57-82.7-109.9c8.9-39.5,48.5-63.2,86.6-51.8c26.5,7.9,43,32.9,39.9,60.5
						c-0.9,7.9-4.4,13.5-12.6,13.7c-8.4,0.1-13.1-5.3-14.7-13.2c-1-4.8-0.5-10-2.2-14.5c-4.4-11.9-14-17-26.1-17.3
						c-14.4-0.4-24.6,6.9-30.8,19.2c-15.4,30.2,10.8,67.1,45.7,65c24.2-1.4,42.1-13.4,55.5-32.9c16.7-24.3,19.7-51.7,18-80.1
						c-0.4-7.5-1.3-15.1-2.4-22.5c-3.2-20.4-6.6-40.7-10.3-63.4l-36-182.6c-4-16.5-8.2-33.1-14.3-48.8
						c-8.1-21.1-18.9-41.2-27.3-62.2c-37-92.3,1.2-193.3,88.9-235.7c24.2-11.7,49.9-16.9,75.1-16.4V684.8z"/>
				</g>
			</g>
		</g>
		<g>
			<g>
				<linearGradient id="SVGID_19_" gradientUnits="userSpaceOnUse" x1="502.4825" y1="171.5073" x2="502.4825" y2="965.1837">
					<stop  offset="0.6182" style="stop-color:#4A42FE"/>
					<stop  offset="0.6564" style="stop-color:#454CFE"/>
					<stop  offset="1" style="stop-color:#15A8FF"/>
				</linearGradient>
				<path class="st23" d="M502.5,684.8c10.6,0.1,20.9,7.3,19.9,18.2c-1.3,14.3-3.9,28.6-6.7,42.8c-8.8,45.7-5.5,89.9,18.9,130.5
					c26.6,44.1,64.4,69.5,118,65c55.4-4.6,94.6-57,82.7-109.9c-8.9-39.5-48.5-63.2-86.6-51.8c-26.5,7.9-43,32.9-39.9,60.5
					c0.9,7.9,4.4,13.5,12.6,13.7c8.4,0.1,13.1-5.3,14.7-13.2c1-4.8,0.5-10,2.2-14.5c4.4-11.9,14-17,26.1-17.3
					c14.4-0.4,24.6,6.9,30.8,19.2c15.4,30.2-10.8,67.1-45.7,65c-24.2-1.4-42.1-13.4-55.5-32.9c-16.7-24.3-19.7-51.7-18-80.1
					c0.4-7.5,1.3-15.1,2.4-22.5c3.2-20.4,6.6-40.7,10.3-63.4l36-182.6c4-16.5,8.2-33.1,14.3-48.8c8.1-21.1,18.9-41.2,27.3-62.2
					c37-92.3-1.2-193.3-88.9-235.7c-24.2-11.7-49.9-16.9-75.1-16.4V684.8z"/>
			</g>
			<g>
				<g>
					<linearGradient id="SVGID_20_" gradientUnits="userSpaceOnUse" x1="502.4825" y1="171.5073" x2="502.4825" y2="965.1837">
						<stop  offset="0.6182" style="stop-color:#4A42FE"/>
						<stop  offset="0.6564" style="stop-color:#454CFE"/>
						<stop  offset="1" style="stop-color:#15A8FF"/>
					</linearGradient>
					<path class="st24" d="M502.5,684.8c-10.6,0.1-20.9,7.3-19.9,18.2c1.3,14.3,3.9,28.6,6.7,42.8c8.8,45.7,5.5,89.9-18.9,130.5
						c-26.6,44.1-64.4,69.5-118,65c-55.4-4.6-94.6-57-82.7-109.9c8.9-39.5,48.5-63.2,86.6-51.8c26.5,7.9,43,32.9,39.9,60.5
						c-0.9,7.9-4.4,13.5-12.6,13.7c-8.4,0.1-13.1-5.3-14.7-13.2c-1-4.8-0.5-10-2.2-14.5c-4.4-11.9-14-17-26.1-17.3
						c-14.4-0.4-24.6,6.9-30.8,19.2c-15.4,30.2,10.8,67.1,45.7,65c24.2-1.4,42.1-13.4,55.5-32.9c16.7-24.3,19.7-51.7,18-80.1
						c-0.4-7.5-1.3-15.1-2.4-22.5c-3.2-20.4-6.6-40.7-10.3-63.4l-36-182.6c-4-16.5-8.2-33.1-14.3-48.8
						c-8.1-21.1-18.9-41.2-27.3-62.2c-37-92.3,1.2-193.3,88.9-235.7c24.2-11.7,49.9-16.9,75.1-16.4V684.8z"/>
				</g>
			</g>
		</g>
	</g>
	<g class="st1">
		<g>
			<g>
				<g>
					<circle class="st11" cx="588.1" cy="396.5" r="26.9"/>
				</g>
			</g>
		</g>
		<g>
			<g>
				<g>
					<circle class="st11" cx="416.9" cy="396.5" r="26.9"/>
				</g>
			</g>
		</g>
	</g>
</g>
</svg>
